<?xml version="1.0" encoding="UTF-8"?>
<!DOCTYPE svg PUBLIC "-//W3C//DTD SVG 1.1//EN" "http://www.w3.org/Graphics/SVG/1.1/DTD/svg11.dtd">
<!-- Creator: CorelDRAW 2018 (64-Bit) -->
<svg xmlns="http://www.w3.org/2000/svg" xml:space="preserve" width="6in" height="3in" version="1.1" style="shape-rendering:geometricPrecision; text-rendering:geometricPrecision; image-rendering:optimizeQuality; fill-rule:evenodd; clip-rule:evenodd"
viewBox="0 0 6000 3000"
 xmlns:xlink="http://www.w3.org/1999/xlink">
 <defs>
  <style type="text/css">
   <![CDATA[
    .str1 {stroke:#373435;stroke-width:41.67;stroke-miterlimit:2.61313}
    .str3 {stroke:#373435;stroke-width:27.78;stroke-miterlimit:2.61313}
    .str0 {stroke:#373435;stroke-width:41.67;stroke-linejoin:bevel;stroke-miterlimit:2.61313}
    .str5 {stroke:#373435;stroke-width:41.67;stroke-linecap:round;stroke-miterlimit:2.61313}
    .str4 {stroke:#373435;stroke-width:27.78;stroke-linecap:round;stroke-miterlimit:2.61313}
    .str6 {stroke:#373435;stroke-width:41.67;stroke-linecap:round;stroke-linejoin:round;stroke-miterlimit:2.61313}
    .str2 {stroke:#373435;stroke-width:27.78;stroke-miterlimit:2.61313;stroke-dasharray:55.551181 27.775591}
    .fil1 {fill:none}
    .fil0 {fill:#FEFEFE}
    .fil2 {fill:#373435;fill-rule:nonzero}
   ]]>
  </style>
 </defs>
 <g id="Layer_x0020_1">
  <metadata id="CorelCorpID_0Corel-Layer"/>
  <rect class="fil0" x="0" y="-0.01" width="5999.99" height="3000"/>
  <polyline class="fil1 str0" points="2875.68,866.99 3431.09,866.99 3919.24,585.16 "/>
  <path class="fil1 str1" d="M3416.37 866.99l14.71 0m488.15 0l479.37 0"/>
  <path class="fil1 str1" d="M3555.92 1046.92c40.63,0 73.56,32.93 73.56,73.56 0,40.63 -32.94,73.56 -73.56,73.56"/>
  <path class="fil1 str1" d="M3555.92 1341.17c40.63,0 73.56,32.93 73.56,73.56 0,40.63 -32.94,73.56 -73.56,73.56"/>
  <path class="fil1 str1" d="M3555.92 1194.04c40.63,0 73.56,32.94 73.56,73.56 0,40.63 -32.94,73.56 -73.56,73.56"/>
  <path class="fil1 str1" d="M3555.92 1488.29c40.63,0 73.56,32.94 73.56,73.56 0,40.63 -32.94,73.56 -73.56,73.56"/>
  <line class="fil1 str1" x1="3706.58" y1="1046.92" x2="3706.58" y2= "1635.42" />
  <line class="fil1 str1" x1="3772.5" y1="1046.92" x2="3772.5" y2= "1635.42" />
  <line class="fil1 str2" x1="3739.54" y1="1046.92" x2="3739.54" y2= "684.21" />
  <polygon class="fil2" points="4015.08,827.08 4015.08,765.31 4023.48,765.31 4055.89,813.79 4055.89,765.31 4063.74,765.31 4063.74,827.08 4055.35,827.08 4022.94,778.59 4022.94,827.08 "/>
  <path id="1" class="fil2" d="M4074.98 797.01c0,-10.24 2.76,-18.26 8.27,-24.06 5.51,-5.8 12.61,-8.69 21.32,-8.69 5.71,0 10.84,1.37 15.43,4.08 4.57,2.72 8.07,6.51 10.47,11.39 2.4,4.86 3.61,10.38 3.61,16.55 0,6.26 -1.26,11.87 -3.8,16.8 -2.53,4.95 -6.11,8.69 -10.74,11.22 -4.64,2.55 -9.65,3.81 -15.01,3.81 -5.82,0 -11.01,-1.41 -15.6,-4.21 -4.57,-2.8 -8.06,-6.63 -10.41,-11.49 -2.36,-4.85 -3.54,-9.98 -3.54,-15.4zm8.45 0.14c0,7.44 2,13.29 6,17.56 4,4.27 9.02,6.41 15.06,6.41 6.16,0 11.2,-2.16 15.19,-6.47 3.97,-4.31 5.95,-10.44 5.95,-18.37 0,-5.02 -0.85,-9.41 -2.54,-13.15 -1.7,-3.74 -4.19,-6.64 -7.45,-8.7 -3.28,-2.06 -6.94,-3.09 -11.02,-3.09 -5.78,0 -10.76,1.98 -14.93,5.95 -4.17,3.97 -6.26,10.58 -6.26,19.85z"/>
  <line class="fil1 str1" x1="2268.29" y1="2507.81" x2="2469.96" y2= "2507.81" />
  <line class="fil1 str3" x1="2318.7" y1="2563.05" x2="2419.54" y2= "2563.05" />
  <line class="fil1 str3" x1="2338.63" y1="2608.9" x2="2399.62" y2= "2608.9" />
  <line class="fil1 str1" x1="3555.92" y1="1046.92" x2="3199.06" y2= "1046.92" />
  <path class="fil1 str4" d="M4714.73 954.3l-316.13 0 0 -163.48 316.13 0m0 163.48l108.76 -81.74m-108.76 -81.74l108.76 81.74"/>
  <polygon class="fil2" points="4408.83,1098.84 4408.83,1044.32 4388.48,1044.32 4388.48,1037.07 4437.39,1037.07 4437.39,1044.32 4417.03,1044.32 4417.03,1098.84 "/>
  <path id="1" class="fil2" d="M4441.78 1068.78c0,-10.24 2.76,-18.26 8.27,-24.06 5.51,-5.8 12.61,-8.69 21.32,-8.69 5.71,0 10.84,1.37 15.43,4.09 4.57,2.72 8.07,6.51 10.47,11.39 2.4,4.86 3.61,10.38 3.61,16.55 0,6.25 -1.26,11.86 -3.8,16.79 -2.53,4.95 -6.11,8.69 -10.74,11.22 -4.65,2.55 -9.65,3.81 -15.01,3.81 -5.82,0 -11.02,-1.41 -15.6,-4.21 -4.57,-2.8 -8.05,-6.63 -10.41,-11.49 -2.36,-4.85 -3.54,-9.98 -3.54,-15.4zm8.45 0.15c0,7.43 2,13.28 6,17.56 4,4.27 9.02,6.41 15.06,6.41 6.15,0 11.2,-2.16 15.19,-6.47 3.97,-4.31 5.95,-10.44 5.95,-18.38 0,-5.02 -0.85,-9.4 -2.55,-13.14 -1.7,-3.74 -4.18,-6.64 -7.45,-8.7 -3.28,-2.06 -6.94,-3.09 -11.01,-3.09 -5.78,0 -10.76,1.98 -14.93,5.95 -4.17,3.97 -6.26,10.58 -6.26,19.86z"/>
  <path id="2" class="fil2" d="M4546.01 1098.84l-16.26 -61.77 8.48 0 9.26 40.5c1,4.24 1.9,8.46 2.66,12.63 1.63,-6.59 2.57,-10.38 2.85,-11.39l11.67 -41.74 9.85 0 8.86 31.28c2.17,7.76 3.78,15.06 4.81,21.85 0.82,-3.9 1.87,-8.37 3.15,-13.41l9.65 -39.72 8.21 0 -16.91 61.77 -7.95 0 -12.95 -47.06c-1.09,-3.94 -1.76,-6.35 -2,-7.24 -0.7,2.82 -1.34,5.23 -1.88,7.23l-12.96 47.07 -8.54 0z"/>
  <path id="3" class="fil2" d="M4606.8 1098.84l23.7 -61.77 8.99 0 25.15 61.77 -9.3 0 -7.15 -18.72 -26.01 0 -6.7 18.72 -8.67 0zm17.77 -25.36l21.05 0 -6.44 -17.13c-1.94,-5.2 -3.41,-9.5 -4.43,-12.9 -0.85,4.02 -1.98,7.98 -3.41,11.89l-6.77 18.13z"/>
  <polygon id="4" class="fil2" points="4680.42,1098.84 4680.42,1044.32 4660.06,1044.32 4660.06,1037.07 4708.98,1037.07 4708.98,1044.32 4688.62,1044.32 4688.62,1098.84 "/>
  <polygon id="5" class="fil2" points="4717.59,1098.84 4717.59,1037.07 4762.19,1037.07 4762.19,1044.32 4725.79,1044.32 4725.79,1063.3 4759.86,1063.3 4759.86,1070.55 4725.79,1070.55 4725.79,1091.59 4763.66,1091.59 4763.66,1098.84 "/>
  <path id="6" class="fil2" d="M4775.13 1098.84l0 -61.77 27.38 0c5.51,0 9.69,0.56 12.55,1.67 2.86,1.11 5.15,3.06 6.86,5.87 1.71,2.8 2.56,5.91 2.56,9.3 0,4.39 -1.42,8.08 -4.26,11.09 -2.83,3 -7.2,4.9 -13.13,5.72 2.17,1.04 3.81,2.07 4.93,3.08 2.39,2.19 4.64,4.93 6.76,8.22l10.69 16.82 -10.21 0 -8.17 -12.85c-2.37,-3.72 -4.34,-6.56 -5.88,-8.53 -1.55,-1.97 -2.93,-3.33 -4.15,-4.13 -1.21,-0.78 -2.46,-1.32 -3.72,-1.64 -0.92,-0.19 -2.43,-0.29 -4.54,-0.29l-9.46 0 0 27.43 -8.2 0zm8.2 -34.51l17.54 0c3.74,0 6.64,-0.39 8.74,-1.17 2.1,-0.76 3.7,-2 4.78,-3.71 1.09,-1.7 1.64,-3.54 1.64,-5.54 0,-2.92 -1.05,-5.33 -3.17,-7.22 -2.11,-1.88 -5.45,-2.82 -10,-2.82l-19.53 0 0 20.45z"/>
  <path id="7" class="fil2" d="M4905.23 1077.17l8.2 2.07c-1.71,6.72 -4.79,11.82 -9.23,15.34 -4.44,3.52 -9.88,5.29 -16.31,5.29 -6.64,0 -12.05,-1.35 -16.22,-4.07 -4.17,-2.7 -7.33,-6.63 -9.5,-11.76 -2.17,-5.15 -3.26,-10.65 -3.26,-16.55 0,-6.43 1.22,-12.04 3.68,-16.82 2.46,-4.79 5.95,-8.43 10.48,-10.91 4.53,-2.49 9.52,-3.72 14.95,-3.72 6.19,0 11.37,1.57 15.57,4.72 4.21,3.15 7.15,7.56 8.8,13.26l-8.02 1.9c-1.43,-4.49 -3.51,-7.77 -6.23,-9.81 -2.72,-2.06 -6.14,-3.08 -10.26,-3.08 -4.73,0 -8.7,1.14 -11.88,3.41 -3.18,2.27 -5.42,5.33 -6.7,9.16 -1.3,3.84 -1.94,7.8 -1.94,11.86 0,5.25 0.76,9.83 2.29,13.75 1.52,3.93 3.9,6.84 7.12,8.78 3.22,1.94 6.7,2.91 10.45,2.91 4.57,0 8.43,-1.32 11.59,-3.95 3.17,-2.65 5.31,-6.56 6.43,-11.76z"/>
  <path id="8" class="fil2" d="M4921.04 1068.78c0,-10.24 2.76,-18.26 8.27,-24.06 5.51,-5.8 12.61,-8.69 21.32,-8.69 5.71,0 10.84,1.37 15.43,4.09 4.57,2.72 8.07,6.51 10.47,11.39 2.4,4.86 3.61,10.38 3.61,16.55 0,6.25 -1.26,11.86 -3.8,16.79 -2.53,4.95 -6.11,8.69 -10.74,11.22 -4.65,2.55 -9.65,3.81 -15.01,3.81 -5.82,0 -11.02,-1.41 -15.6,-4.21 -4.57,-2.8 -8.05,-6.63 -10.41,-11.49 -2.36,-4.85 -3.54,-9.98 -3.54,-15.4zm8.45 0.15c0,7.43 2,13.28 6,17.56 4,4.27 9.02,6.41 15.06,6.41 6.15,0 11.2,-2.16 15.19,-6.47 3.97,-4.31 5.95,-10.44 5.95,-18.38 0,-5.02 -0.85,-9.4 -2.55,-13.14 -1.7,-3.74 -4.18,-6.64 -7.45,-8.7 -3.28,-2.06 -6.94,-3.09 -11.01,-3.09 -5.78,0 -10.76,1.98 -14.93,5.95 -4.17,3.97 -6.26,10.58 -6.26,19.86z"/>
  <path id="9" class="fil2" d="M4988.14 1068.78c0,-10.24 2.76,-18.26 8.27,-24.06 5.51,-5.8 12.61,-8.69 21.32,-8.69 5.71,0 10.84,1.37 15.43,4.09 4.57,2.72 8.07,6.51 10.47,11.39 2.4,4.86 3.61,10.38 3.61,16.55 0,6.25 -1.26,11.86 -3.8,16.79 -2.53,4.95 -6.11,8.69 -10.74,11.22 -4.65,2.55 -9.65,3.81 -15.01,3.81 -5.82,0 -11.02,-1.41 -15.6,-4.21 -4.57,-2.8 -8.05,-6.63 -10.41,-11.49 -2.36,-4.85 -3.54,-9.98 -3.54,-15.4zm8.45 0.15c0,7.43 2,13.28 6,17.56 4,4.27 9.02,6.41 15.06,6.41 6.15,0 11.2,-2.16 15.19,-6.47 3.97,-4.31 5.95,-10.44 5.95,-18.38 0,-5.02 -0.85,-9.4 -2.55,-13.14 -1.7,-3.74 -4.18,-6.64 -7.45,-8.7 -3.28,-2.06 -6.94,-3.09 -11.01,-3.09 -5.78,0 -10.76,1.98 -14.93,5.95 -4.17,3.97 -6.26,10.58 -6.26,19.86z"/>
  <polygon id="10" class="fil2" points="5057.41,1098.84 5057.41,1037.07 5065.6,1037.07 5065.6,1091.59 5095.97,1091.59 5095.97,1098.84 "/>
  <polygon id="11" class="fil2" points="5105.9,1098.84 5105.9,1037.07 5150.5,1037.07 5150.5,1044.32 5114.1,1044.32 5114.1,1063.3 5148.17,1063.3 5148.17,1070.55 5114.1,1070.55 5114.1,1091.59 5151.97,1091.59 5151.97,1098.84 "/>
  <path id="12" class="fil2" d="M5163.44 1098.84l0 -61.77 27.38 0c5.51,0 9.69,0.56 12.55,1.67 2.86,1.11 5.15,3.06 6.86,5.87 1.71,2.8 2.56,5.91 2.56,9.3 0,4.39 -1.42,8.08 -4.26,11.09 -2.83,3 -7.2,4.9 -13.13,5.72 2.17,1.04 3.81,2.07 4.93,3.08 2.39,2.19 4.64,4.93 6.76,8.22l10.69 16.82 -10.21 0 -8.17 -12.85c-2.37,-3.72 -4.34,-6.56 -5.88,-8.53 -1.55,-1.97 -2.93,-3.33 -4.15,-4.13 -1.21,-0.78 -2.46,-1.32 -3.72,-1.64 -0.92,-0.19 -2.43,-0.29 -4.54,-0.29l-9.46 0 0 27.43 -8.2 0zm8.2 -34.51l17.54 0c3.74,0 6.64,-0.39 8.74,-1.17 2.1,-0.76 3.7,-2 4.78,-3.71 1.09,-1.7 1.64,-3.54 1.64,-5.54 0,-2.92 -1.05,-5.33 -3.17,-7.22 -2.11,-1.88 -5.45,-2.82 -10,-2.82l-19.53 0 0 20.45z"/>
  <path class="fil2" d="M3469.74 1734.85l7.68 -0.69c0.36,3.11 1.21,5.65 2.55,7.65 1.33,1.98 3.41,3.59 6.21,4.83 2.81,1.22 5.97,1.84 9.48,1.84 3.12,0 5.87,-0.46 8.26,-1.39 2.39,-0.93 4.15,-2.21 5.32,-3.84 1.17,-1.63 1.75,-3.39 1.75,-5.29 0,-1.93 -0.56,-3.61 -1.68,-5.06 -1.12,-1.44 -2.98,-2.65 -5.56,-3.64 -1.65,-0.63 -5.32,-1.64 -11,-3 -5.68,-1.37 -9.65,-2.65 -11.92,-3.85 -2.95,-1.55 -5.13,-3.48 -6.57,-5.76 -1.45,-2.29 -2.17,-4.86 -2.17,-7.69 0,-3.13 0.89,-6.06 2.66,-8.76 1.77,-2.72 4.34,-4.78 7.75,-6.19 3.39,-1.41 7.17,-2.11 11.33,-2.11 4.57,0 8.61,0.74 12.11,2.22 3.49,1.46 6.18,3.64 8.07,6.51 1.88,2.86 2.89,6.11 3.03,9.74l-7.85 0.6c-0.42,-3.9 -1.84,-6.84 -4.27,-8.83 -2.43,-2 -6.03,-2.99 -10.77,-2.99 -4.94,0 -8.56,0.91 -10.81,2.72 -2.26,1.81 -3.39,4 -3.39,6.56 0,2.21 0.8,4.04 2.4,5.48 1.58,1.43 5.68,2.91 12.32,4.4 6.64,1.51 11.2,2.82 13.67,3.94 3.58,1.65 6.24,3.74 7.95,6.28 1.71,2.53 2.56,5.45 2.56,8.76 0,3.29 -0.93,6.37 -2.81,9.27 -1.89,2.91 -4.57,5.16 -8.09,6.77 -3.52,1.61 -7.48,2.42 -11.89,2.42 -5.58,0 -10.25,-0.82 -14.02,-2.44 -3.78,-1.63 -6.73,-4.07 -8.87,-7.35 -2.16,-3.26 -3.28,-6.96 -3.39,-11.09z"/>
  <path id="1" class="fil2" d="M3526.16 1732.31c0,-8.27 2.3,-14.39 6.92,-18.38 3.84,-3.31 8.54,-4.96 14.07,-4.96 6.14,0 11.17,2.01 15.08,6.04 3.9,4.01 5.85,9.57 5.85,16.67 0,5.75 -0.86,10.27 -2.59,13.56 -1.72,3.29 -4.24,5.85 -7.55,7.68 -3.29,1.83 -6.9,2.73 -10.8,2.73 -6.27,0 -11.33,-2 -15.2,-6.01 -3.87,-4.01 -5.8,-9.79 -5.8,-17.32zm7.76 0.01c0,5.72 1.25,10.01 3.76,12.84 2.52,2.85 5.66,4.27 9.47,4.27 3.77,0 6.9,-1.42 9.42,-4.28 2.5,-2.86 3.76,-7.22 3.76,-13.07 0,-5.52 -1.27,-9.7 -3.78,-12.54 -2.52,-2.85 -5.65,-4.27 -9.39,-4.27 -3.81,0 -6.96,1.41 -9.47,4.24 -2.5,2.83 -3.76,7.1 -3.76,12.81z"/>
  <polygon id="2" class="fil2" points="3576.81,1754.7 3576.81,1692.93 3584.41,1692.93 3584.41,1754.7 "/>
  <path id="3" class="fil2" d="M3596.15 1701.56l0 -8.63 7.59 0 0 8.63 -7.59 0zm0 53.14l0 -44.78 7.59 0 0 44.78 -7.59 0z"/>
  <path id="4" class="fil2" d="M3644.22 1754.7l0 -5.68c-2.83,4.42 -7,6.63 -12.51,6.63 -3.57,0 -6.85,-0.98 -9.82,-2.95 -2.99,-1.95 -5.3,-4.7 -6.96,-8.21 -1.64,-3.52 -2.46,-7.56 -2.46,-12.13 0,-4.46 0.75,-8.5 2.23,-12.14 1.5,-3.62 3.72,-6.41 6.7,-8.34 2.96,-1.94 6.3,-2.91 9.96,-2.91 2.7,0 5.11,0.57 7.2,1.71 2.1,1.13 3.81,2.63 5.13,4.46l0 -22.22 7.59 0 0 61.77 -7.07 0zm-23.98 -22.33c0,5.72 1.21,9.99 3.64,12.83 2.42,2.83 5.28,4.24 8.57,4.24 3.32,0 6.14,-1.35 8.47,-4.06 2.31,-2.7 3.48,-6.83 3.48,-12.38 0,-6.1 -1.18,-10.58 -3.55,-13.44 -2.36,-2.86 -5.28,-4.28 -8.74,-4.28 -3.38,0 -6.2,1.37 -8.47,4.11 -2.26,2.75 -3.39,7.07 -3.39,12.98z"/>
  <path id="5" class="fil2" d="M3685.54 1734.85l7.68 -0.69c0.36,3.11 1.21,5.65 2.55,7.65 1.33,1.98 3.41,3.59 6.21,4.83 2.81,1.22 5.97,1.84 9.48,1.84 3.12,0 5.87,-0.46 8.26,-1.39 2.39,-0.93 4.15,-2.21 5.32,-3.84 1.17,-1.63 1.75,-3.39 1.75,-5.29 0,-1.93 -0.56,-3.61 -1.68,-5.06 -1.12,-1.44 -2.98,-2.65 -5.56,-3.64 -1.65,-0.63 -5.32,-1.64 -11,-3 -5.68,-1.37 -9.65,-2.65 -11.92,-3.85 -2.95,-1.55 -5.13,-3.48 -6.57,-5.76 -1.45,-2.29 -2.17,-4.86 -2.17,-7.69 0,-3.13 0.89,-6.06 2.66,-8.76 1.77,-2.72 4.34,-4.78 7.75,-6.19 3.39,-1.41 7.17,-2.11 11.33,-2.11 4.57,0 8.61,0.74 12.11,2.22 3.49,1.46 6.18,3.64 8.07,6.51 1.88,2.86 2.89,6.11 3.03,9.74l-7.85 0.6c-0.42,-3.9 -1.84,-6.84 -4.27,-8.83 -2.43,-2 -6.03,-2.99 -10.77,-2.99 -4.94,0 -8.56,0.91 -10.81,2.72 -2.26,1.81 -3.39,4 -3.39,6.56 0,2.21 0.8,4.04 2.4,5.48 1.58,1.43 5.68,2.91 12.32,4.4 6.64,1.51 11.2,2.82 13.67,3.94 3.58,1.65 6.24,3.74 7.95,6.28 1.71,2.53 2.56,5.45 2.56,8.76 0,3.29 -0.93,6.37 -2.81,9.27 -1.89,2.91 -4.57,5.16 -8.09,6.77 -3.52,1.61 -7.48,2.42 -11.89,2.42 -5.58,0 -10.25,-0.82 -14.02,-2.44 -3.78,-1.63 -6.73,-4.07 -8.87,-7.35 -2.16,-3.26 -3.28,-6.96 -3.39,-11.09z"/>
  <path id="6" class="fil2" d="M3761.29 1747.93l1.04 6.7c-2.13,0.44 -4.04,0.67 -5.71,0.67 -2.75,0 -4.87,-0.43 -6.4,-1.31 -1.51,-0.88 -2.57,-2.01 -3.19,-3.44 -0.62,-1.42 -0.92,-4.41 -0.92,-8.97l0 -25.8 -5.61 0 0 -5.87 5.61 0 0 -11.07 7.59 -4.56 0 15.63 7.59 0 0 5.87 -7.59 0 0 26.23c0,2.17 0.13,3.57 0.41,4.19 0.26,0.62 0.69,1.11 1.29,1.48 0.61,0.36 1.47,0.55 2.59,0.55 0.83,0 1.94,-0.1 3.31,-0.3z"/>
  <path id="7" class="fil2" d="M3798.03 1749.09c-2.82,2.4 -5.54,4.08 -8.14,5.07 -2.6,0.99 -5.39,1.48 -8.39,1.48 -4.92,0 -8.7,-1.19 -11.34,-3.59 -2.65,-2.39 -3.97,-5.45 -3.97,-9.17 0,-2.19 0.5,-4.19 1.5,-6 1,-1.81 2.31,-3.25 3.93,-4.34 1.62,-1.09 3.44,-1.93 5.46,-2.49 1.49,-0.39 3.75,-0.76 6.76,-1.13 6.13,-0.72 10.65,-1.6 13.54,-2.6 0.03,-1.04 0.04,-1.7 0.04,-1.97 0,-3.07 -0.72,-5.25 -2.15,-6.51 -1.94,-1.71 -4.83,-2.56 -8.66,-2.56 -3.58,0 -6.22,0.63 -7.92,1.88 -1.71,1.25 -2.96,3.46 -3.78,6.66l-7.42 -1.04c0.67,-3.18 1.78,-5.75 3.33,-7.7 1.55,-1.96 3.8,-3.45 6.73,-4.52 2.92,-1.05 6.33,-1.58 10.18,-1.58 3.82,0 6.94,0.44 9.35,1.35 2.39,0.91 4.15,2.03 5.28,3.39 1.12,1.37 1.91,3.09 2.37,5.18 0.24,1.3 0.37,3.62 0.37,6.97l0 10.07c0,7.03 0.16,11.47 0.47,13.36 0.3,1.88 0.94,3.68 1.85,5.41l-7.94 0c-0.76,-1.59 -1.25,-3.46 -1.46,-5.61zm-0.61 -16.82c-2.76,1.12 -6.9,2.07 -12.42,2.85 -3.13,0.44 -5.35,0.95 -6.64,1.51 -1.3,0.56 -2.29,1.38 -2.99,2.44 -0.7,1.08 -1.06,2.27 -1.06,3.59 0,2 0.76,3.68 2.3,5.02 1.54,1.33 3.78,2.01 6.73,2.01 2.92,0 5.52,-0.63 7.81,-1.91 2.27,-1.26 3.96,-3 5.02,-5.2 0.82,-1.71 1.22,-4.23 1.22,-7.55l0.04 -2.76z"/>
  <path id="8" class="fil2" d="M3833.24 1747.93l1.04 6.7c-2.13,0.44 -4.04,0.67 -5.71,0.67 -2.75,0 -4.87,-0.43 -6.4,-1.31 -1.51,-0.88 -2.57,-2.01 -3.19,-3.44 -0.62,-1.42 -0.92,-4.41 -0.92,-8.97l0 -25.8 -5.61 0 0 -5.87 5.61 0 0 -11.07 7.59 -4.56 0 15.63 7.59 0 0 5.87 -7.59 0 0 26.23c0,2.17 0.13,3.57 0.41,4.19 0.26,0.62 0.69,1.11 1.29,1.48 0.61,0.36 1.47,0.55 2.59,0.55 0.83,0 1.94,-0.1 3.31,-0.3z"/>
  <path id="9" class="fil2" d="M3871.27 1740.2l7.85 1.04c-1.22,4.56 -3.51,8.11 -6.85,10.63 -3.33,2.52 -7.59,3.78 -12.78,3.78 -6.53,0 -11.7,-2.01 -15.53,-6.04 -3.82,-4.01 -5.74,-9.66 -5.74,-16.92 0,-7.51 1.93,-13.35 5.8,-17.49 3.87,-4.15 8.89,-6.22 15.05,-6.22 5.97,0 10.84,2.03 14.63,6.1 3.78,4.07 5.68,9.79 5.68,17.17 0,0.45 -0.01,1.12 -0.04,2.02l-33.34 0c0.29,4.9 1.67,8.67 4.17,11.27 2.49,2.6 5.61,3.91 9.33,3.91 2.78,0 5.15,-0.73 7.11,-2.2 1.97,-1.47 3.52,-3.81 4.67,-7.03zm-24.84 -12.17l24.93 0c-0.33,-3.77 -1.29,-6.59 -2.86,-8.47 -2.4,-2.92 -5.54,-4.39 -9.38,-4.39 -3.48,0 -6.4,1.17 -8.77,3.49 -2.36,2.33 -3.67,5.45 -3.93,9.36z"/>
  <path id="10" class="fil2" d="M3913.8 1754.7l0 -61.77 27.38 0c5.51,0 9.69,0.56 12.55,1.67 2.86,1.11 5.15,3.06 6.86,5.87 1.71,2.8 2.56,5.91 2.56,9.3 0,4.39 -1.42,8.08 -4.26,11.09 -2.83,3 -7.2,4.9 -13.13,5.72 2.17,1.04 3.81,2.07 4.93,3.08 2.39,2.19 4.64,4.93 6.76,8.22l10.69 16.82 -10.21 0 -8.17 -12.85c-2.37,-3.72 -4.34,-6.56 -5.88,-8.53 -1.55,-1.97 -2.93,-3.33 -4.15,-4.13 -1.21,-0.78 -2.46,-1.32 -3.72,-1.64 -0.92,-0.19 -2.43,-0.29 -4.54,-0.29l-9.46 0 0 27.43 -8.2 0zm8.2 -34.51l17.54 0c3.74,0 6.64,-0.39 8.74,-1.17 2.1,-0.76 3.7,-2 4.78,-3.71 1.09,-1.7 1.64,-3.54 1.64,-5.54 0,-2.92 -1.05,-5.33 -3.17,-7.22 -2.11,-1.88 -5.45,-2.82 -10,-2.82l-19.53 0 0 20.45z"/>
  <path id="11" class="fil2" d="M4005.52 1740.2l7.85 1.04c-1.22,4.56 -3.51,8.11 -6.85,10.63 -3.33,2.52 -7.59,3.78 -12.78,3.78 -6.53,0 -11.7,-2.01 -15.53,-6.04 -3.82,-4.01 -5.74,-9.66 -5.74,-16.92 0,-7.51 1.93,-13.35 5.8,-17.49 3.87,-4.15 8.89,-6.22 15.05,-6.22 5.97,0 10.84,2.03 14.63,6.1 3.78,4.07 5.68,9.79 5.68,17.17 0,0.45 -0.01,1.12 -0.04,2.02l-33.34 0c0.29,4.9 1.67,8.67 4.17,11.27 2.49,2.6 5.61,3.91 9.33,3.91 2.78,0 5.15,-0.73 7.11,-2.2 1.97,-1.47 3.52,-3.81 4.67,-7.03zm-24.84 -12.17l24.93 0c-0.33,-3.77 -1.29,-6.59 -2.86,-8.47 -2.4,-2.92 -5.54,-4.39 -9.38,-4.39 -3.48,0 -6.4,1.17 -8.77,3.49 -2.36,2.33 -3.67,5.45 -3.93,9.36z"/>
  <polygon id="12" class="fil2" points="4022.79,1754.7 4022.79,1692.93 4030.38,1692.93 4030.38,1754.7 "/>
  <path id="13" class="fil2" d="M4071.37 1749.09c-2.82,2.4 -5.54,4.08 -8.14,5.07 -2.6,0.99 -5.39,1.48 -8.39,1.48 -4.92,0 -8.7,-1.19 -11.34,-3.59 -2.65,-2.39 -3.97,-5.45 -3.97,-9.17 0,-2.19 0.5,-4.19 1.5,-6 1,-1.81 2.31,-3.25 3.93,-4.34 1.62,-1.09 3.44,-1.93 5.46,-2.49 1.49,-0.39 3.75,-0.76 6.76,-1.13 6.13,-0.72 10.65,-1.6 13.54,-2.6 0.03,-1.04 0.04,-1.7 0.04,-1.97 0,-3.07 -0.72,-5.25 -2.15,-6.51 -1.94,-1.71 -4.83,-2.56 -8.66,-2.56 -3.58,0 -6.22,0.63 -7.92,1.88 -1.71,1.25 -2.96,3.46 -3.78,6.66l-7.42 -1.04c0.67,-3.18 1.78,-5.75 3.33,-7.7 1.55,-1.96 3.8,-3.45 6.73,-4.52 2.92,-1.05 6.33,-1.58 10.18,-1.58 3.82,0 6.94,0.44 9.35,1.35 2.39,0.91 4.15,2.03 5.28,3.39 1.12,1.37 1.91,3.09 2.37,5.18 0.24,1.3 0.37,3.62 0.37,6.97l0 10.07c0,7.03 0.16,11.47 0.47,13.36 0.3,1.88 0.94,3.68 1.85,5.41l-7.94 0c-0.76,-1.59 -1.25,-3.46 -1.46,-5.61zm-0.61 -16.82c-2.76,1.12 -6.9,2.07 -12.42,2.85 -3.13,0.44 -5.35,0.95 -6.64,1.51 -1.3,0.56 -2.29,1.38 -2.99,2.44 -0.7,1.08 -1.06,2.27 -1.06,3.59 0,2 0.76,3.68 2.3,5.02 1.54,1.33 3.78,2.01 6.73,2.01 2.92,0 5.52,-0.63 7.81,-1.91 2.27,-1.26 3.96,-3 5.02,-5.2 0.82,-1.71 1.22,-4.23 1.22,-7.55l0.04 -2.76z"/>
  <path id="14" class="fil2" d="M4089.76 1771.91l-0.87 -7.02c1.67,0.45 3.11,0.68 4.34,0.68 1.7,0 3.05,-0.29 4.06,-0.85 1.02,-0.56 1.85,-1.35 2.5,-2.36 0.47,-0.76 1.25,-2.65 2.31,-5.67 0.14,-0.42 0.36,-1.04 0.67,-1.85l-16.99 -44.92 8.11 0 9.35 25.85c1.22,3.26 2.3,6.71 3.26,10.34 0.88,-3.41 1.91,-6.78 3.12,-10.08l9.55 -26.11 7.58 0 -16.93 45.55c-1.83,4.91 -3.25,8.27 -4.27,10.12 -1.35,2.49 -2.9,4.31 -4.64,5.48 -1.76,1.17 -3.84,1.74 -6.26,1.74 -1.47,0 -3.11,-0.3 -4.9,-0.91z"/>
  <line class="fil1 str1" x1="2875.68" y1="943" x2="2875.68" y2= "790.97" />
  <polygon class="fil2" points="2593.49,888 2593.49,871.09 2576.67,871.09 2576.67,864.01 2593.49,864.01 2593.49,847.19 2600.65,847.19 2600.65,864.01 2617.48,864.01 2617.48,871.09 2600.65,871.09 2600.65,888 "/>
  <path id="1" class="fil2" d="M2654.31 898l-7.59 0 0 -48.34c-1.83,1.75 -4.23,3.49 -7.19,5.23 -2.96,1.74 -5.63,3.05 -7.99,3.91l0 -7.33c4.24,-1.98 7.95,-4.4 11.13,-7.25 3.18,-2.83 5.43,-5.58 6.76,-8.25l4.89 0 0 62.03z"/>
  <path id="2" class="fil2" d="M2713.6 890.76l0 7.25 -40.89 0c-0.06,-1.83 0.24,-3.58 0.89,-5.28 1.05,-2.78 2.73,-5.52 5.05,-8.21 2.31,-2.69 5.62,-5.8 9.92,-9.32 6.69,-5.5 11.23,-9.86 13.6,-13.08 2.39,-3.22 3.58,-6.27 3.58,-9.15 0,-3 -1.08,-5.54 -3.24,-7.61 -2.16,-2.06 -4.98,-3.09 -8.44,-3.09 -3.67,0 -6.6,1.09 -8.8,3.28 -2.2,2.17 -3.31,5.19 -3.34,9.06l-7.76 -0.78c0.53,-5.81 2.55,-10.24 6.02,-13.29 3.5,-3.05 8.17,-4.57 14.05,-4.57 5.92,0 10.63,1.64 14.07,4.93 3.47,3.29 5.19,7.37 5.19,12.24 0,2.47 -0.5,4.9 -1.52,7.29 -1.01,2.4 -2.69,4.92 -5.04,7.57 -2.36,2.63 -6.25,6.27 -11.69,10.87 -4.56,3.82 -7.49,6.41 -8.79,7.78 -1.29,1.37 -2.36,2.73 -3.2,4.11l30.33 0z"/>
  <path id="3" class="fil2" d="M2721.81 867.52c0,-7.29 0.75,-13.19 2.24,-17.64 1.51,-4.47 3.74,-7.91 6.7,-10.31 2.95,-2.4 6.67,-3.59 11.16,-3.59 3.31,0 6.21,0.66 8.73,2 2.5,1.33 4.57,3.26 6.19,5.78 1.61,2.5 2.87,5.56 3.8,9.17 0.93,3.61 1.39,8.48 1.39,14.59 0,7.25 -0.75,13.11 -2.23,17.57 -1.48,4.47 -3.71,7.91 -6.67,10.33 -2.95,2.41 -6.69,3.62 -11.2,3.62 -5.94,0 -10.61,-2.11 -14,-6.35 -4.07,-5.18 -6.1,-13.56 -6.1,-25.17zm7.77 0.03c0,10.17 1.18,16.93 3.55,20.26 2.37,3.35 5.3,5.02 8.78,5.02 3.48,0 6.41,-1.68 8.79,-5.03 2.37,-3.37 3.55,-10.11 3.55,-20.25 0,-10.17 -1.18,-16.92 -3.55,-20.26 -2.36,-3.35 -5.32,-5.02 -8.87,-5.02 -3.48,0 -6.27,1.48 -8.35,4.43 -2.6,3.76 -3.89,10.71 -3.89,20.85z"/>
  <path id="4" class="fil2" d="M2784.1 898l-16.89 -44.78 8.13 0 9.57 26.81c1.04,2.89 2,5.9 2.87,9.02 0.68,-2.36 1.61,-5.19 2.83,-8.51l9.95 -27.32 7.8 0 -16.95 44.78 -7.31 0z"/>
  <line class="fil1 str1" x1="2163.4" y1="679.14" x2="2163.4" y2= "527.1" />
  <polygon class="fil2" points="1857.63,623.9 1857.63,606.99 1840.8,606.99 1840.8,599.91 1857.63,599.91 1857.63,583.09 1864.79,583.09 1864.79,599.91 1881.61,599.91 1881.61,606.99 1864.79,606.99 1864.79,623.9 "/>
  <path id="1" class="fil2" d="M1910.6 633.91l-23.87 -61.77 8.86 0 16.05 44.89c1.28,3.59 2.37,6.96 3.24,10.11 0.95,-3.38 2.06,-6.74 3.32,-10.11l16.65 -44.89 8.34 0 -24.09 61.77 -8.5 0z"/>
  <polygon id="2" class="fil2" points="1949.43,633.91 1949.43,572.13 1957.02,572.13 1957.02,633.91 "/>
  <path id="3" class="fil2" d="M1965.92 611.52c0,-8.27 2.3,-14.39 6.92,-18.37 3.84,-3.31 8.54,-4.96 14.08,-4.96 6.14,0 11.17,2.01 15.08,6.04 3.9,4.01 5.85,9.57 5.85,16.67 0,5.75 -0.86,10.26 -2.59,13.56 -1.72,3.29 -4.24,5.85 -7.55,7.68 -3.29,1.83 -6.9,2.73 -10.8,2.73 -6.27,0 -11.33,-2 -15.2,-6.01 -3.87,-4.01 -5.8,-9.79 -5.8,-17.33zm7.76 0.02c0,5.72 1.25,10.01 3.76,12.84 2.52,2.85 5.67,4.27 9.48,4.27 3.76,0 6.9,-1.42 9.42,-4.28 2.5,-2.86 3.75,-7.22 3.75,-13.07 0,-5.52 -1.26,-9.7 -3.78,-12.54 -2.52,-2.85 -5.65,-4.27 -9.39,-4.27 -3.81,0 -6.96,1.41 -9.48,4.24 -2.5,2.83 -3.76,7.1 -3.76,12.81z"/>
  <path id="4" class="fil2" d="M2015.36 637.61l7.33 1.04c0.3,2.27 1.17,3.93 2.57,4.98 1.88,1.39 4.46,2.1 7.72,2.1 3.51,0 6.22,-0.7 8.14,-2.1 1.91,-1.39 3.2,-3.37 3.88,-5.88 0.39,-1.54 0.57,-4.77 0.55,-9.7 -3.32,3.91 -7.45,5.87 -12.39,5.87 -6.16,0 -10.93,-2.21 -14.3,-6.66 -3.38,-4.43 -5.06,-9.75 -5.06,-15.94 0,-4.27 0.78,-8.21 2.31,-11.82 1.54,-3.61 3.78,-6.38 6.71,-8.35 2.93,-1.97 6.39,-2.94 10.35,-2.94 5.28,0 9.63,2.15 13.06,6.47l0 -5.52 6.99 0 0 38.67c0,6.97 -0.7,11.91 -2.13,14.81 -1.41,2.9 -3.67,5.2 -6.73,6.89 -3.07,1.68 -6.86,2.53 -11.34,2.53 -5.33,0 -9.63,-1.19 -12.91,-3.59 -3.29,-2.39 -4.87,-6 -4.76,-10.81zm6.21 -26.86c0,5.85 1.17,10.12 3.49,12.81 2.35,2.69 5.26,4.04 8.77,4.04 3.5,0 6.41,-1.33 8.79,-4.01 2.36,-2.67 3.54,-6.87 3.54,-12.59 0,-5.46 -1.22,-9.59 -3.65,-12.37 -2.43,-2.78 -5.37,-4.16 -8.79,-4.16 -3.38,0 -6.24,1.37 -8.61,4.1 -2.36,2.73 -3.54,6.79 -3.54,12.18z"/>
  <path id="5" class="fil2" d="M2064.74 580.76l0 -8.63 7.59 0 0 8.63 -7.59 0zm0 53.15l0 -44.78 7.59 0 0 44.78 -7.59 0z"/>
  <path id="6" class="fil2" d="M2113.15 617.51l7.42 1.04c-0.82,5.11 -2.89,9.09 -6.24,11.98 -3.35,2.89 -7.48,4.33 -12.35,4.33 -6.11,0 -11.03,-2 -14.74,-6 -3.72,-4 -5.58,-9.72 -5.58,-17.17 0,-4.83 0.8,-9.04 2.4,-12.67 1.6,-3.61 4.03,-6.33 7.31,-8.12 3.26,-1.81 6.81,-2.72 10.67,-2.72 4.85,0 8.83,1.22 11.91,3.68 3.09,2.46 5.07,5.95 5.94,10.46l-7.33 1.12c-0.7,-3 -1.94,-5.26 -3.74,-6.79 -1.78,-1.51 -3.94,-2.27 -6.47,-2.27 -3.83,0 -6.93,1.37 -9.33,4.1 -2.39,2.75 -3.58,7.06 -3.58,12.98 0,6.01 1.15,10.37 3.45,13.09 2.31,2.72 5.32,4.08 9.02,4.08 2.99,0 5.48,-0.91 7.46,-2.73 2,-1.81 3.26,-4.61 3.8,-8.4z"/>
  <polygon class="fil2" points="794.69,868.19 794.69,806.41 802.88,806.41 802.88,860.94 833.25,860.94 833.25,868.19 "/>
  <path id="1" class="fil2" d="M836.24 868.19l23.7 -61.77 8.99 0 25.15 61.77 -9.3 0 -7.15 -18.72 -26.01 0 -6.7 18.72 -8.67 0zm17.77 -25.36l21.05 0 -6.44 -17.13c-1.94,-5.2 -3.41,-9.5 -4.43,-12.9 -0.85,4.02 -1.98,7.98 -3.41,11.89l-6.77 18.13z"/>
  <path id="2" class="fil2" d="M897.88 848.34l7.68 -0.69c0.36,3.11 1.21,5.65 2.55,7.65 1.33,1.98 3.41,3.59 6.21,4.83 2.81,1.22 5.97,1.84 9.48,1.84 3.12,0 5.87,-0.46 8.26,-1.39 2.39,-0.93 4.15,-2.21 5.32,-3.84 1.17,-1.63 1.75,-3.39 1.75,-5.29 0,-1.93 -0.56,-3.61 -1.68,-5.06 -1.12,-1.44 -2.98,-2.65 -5.56,-3.64 -1.65,-0.63 -5.32,-1.64 -11,-3 -5.68,-1.37 -9.65,-2.65 -11.92,-3.85 -2.95,-1.55 -5.13,-3.48 -6.57,-5.76 -1.45,-2.29 -2.17,-4.86 -2.17,-7.69 0,-3.13 0.89,-6.06 2.66,-8.76 1.77,-2.72 4.34,-4.78 7.75,-6.19 3.39,-1.41 7.17,-2.11 11.33,-2.11 4.57,0 8.61,0.74 12.11,2.22 3.49,1.46 6.18,3.64 8.07,6.51 1.88,2.86 2.89,6.11 3.03,9.74l-7.85 0.6c-0.42,-3.9 -1.84,-6.84 -4.27,-8.83 -2.43,-2 -6.03,-2.99 -10.77,-2.99 -4.94,0 -8.56,0.91 -10.81,2.72 -2.26,1.81 -3.39,4 -3.39,6.56 0,2.21 0.8,4.04 2.4,5.48 1.58,1.43 5.68,2.91 12.32,4.4 6.64,1.51 11.2,2.82 13.67,3.94 3.58,1.65 6.24,3.74 7.95,6.28 1.71,2.53 2.56,5.45 2.56,8.76 0,3.29 -0.93,6.37 -2.81,9.27 -1.89,2.91 -4.57,5.16 -8.09,6.77 -3.52,1.61 -7.48,2.42 -11.89,2.42 -5.58,0 -10.25,-0.82 -14.02,-2.44 -3.78,-1.63 -6.73,-4.07 -8.87,-7.35 -2.16,-3.26 -3.28,-6.96 -3.39,-11.09z"/>
  <polygon id="3" class="fil2" points="958.27,868.19 958.27,806.41 1002.87,806.41 1002.87,813.66 966.46,813.66 966.46,832.64 1000.54,832.64 1000.54,839.89 966.46,839.89 966.46,860.94 1004.34,860.94 1004.34,868.19 "/>
  <path id="4" class="fil2" d="M1015.81 868.19l0 -61.77 27.38 0c5.51,0 9.69,0.56 12.55,1.67 2.86,1.11 5.15,3.06 6.86,5.87 1.71,2.8 2.56,5.91 2.56,9.3 0,4.39 -1.42,8.08 -4.26,11.09 -2.83,3 -7.2,4.9 -13.13,5.72 2.17,1.04 3.81,2.07 4.93,3.08 2.39,2.19 4.64,4.93 6.76,8.22l10.69 16.82 -10.21 0 -8.17 -12.85c-2.37,-3.72 -4.34,-6.56 -5.88,-8.53 -1.55,-1.97 -2.93,-3.33 -4.15,-4.13 -1.21,-0.78 -2.46,-1.32 -3.72,-1.64 -0.92,-0.19 -2.43,-0.29 -4.54,-0.29l-9.46 0 0 27.43 -8.2 0zm8.2 -34.51l17.54 0c3.74,0 6.64,-0.39 8.74,-1.17 2.1,-0.76 3.7,-2 4.78,-3.71 1.09,-1.7 1.64,-3.54 1.64,-5.54 0,-2.92 -1.05,-5.33 -3.17,-7.22 -2.11,-1.88 -5.45,-2.82 -10,-2.82l-19.53 0 0 20.45z"/>
  <path id="5" class="fil2" d="M1145.91 846.52l8.2 2.07c-1.71,6.72 -4.79,11.82 -9.23,15.34 -4.44,3.52 -9.88,5.29 -16.31,5.29 -6.64,0 -12.05,-1.35 -16.22,-4.07 -4.17,-2.7 -7.33,-6.63 -9.5,-11.76 -2.17,-5.15 -3.26,-10.65 -3.26,-16.55 0,-6.43 1.22,-12.04 3.68,-16.82 2.46,-4.79 5.95,-8.43 10.48,-10.91 4.53,-2.49 9.52,-3.72 14.95,-3.72 6.19,0 11.37,1.57 15.57,4.72 4.21,3.15 7.15,7.56 8.8,13.26l-8.02 1.9c-1.43,-4.49 -3.51,-7.77 -6.23,-9.81 -2.72,-2.06 -6.14,-3.08 -10.26,-3.08 -4.73,0 -8.7,1.14 -11.88,3.41 -3.18,2.27 -5.42,5.33 -6.7,9.16 -1.3,3.84 -1.94,7.8 -1.94,11.86 0,5.25 0.76,9.83 2.29,13.75 1.52,3.93 3.9,6.84 7.12,8.78 3.22,1.94 6.7,2.91 10.45,2.91 4.57,0 8.43,-1.32 11.59,-3.95 3.17,-2.65 5.31,-6.56 6.43,-11.76z"/>
  <path id="6" class="fil2" d="M1204.67 806.41l8.2 0 0 35.67c0,6.21 -0.7,11.15 -2.1,14.8 -1.41,3.64 -3.94,6.61 -7.59,8.9 -3.67,2.29 -8.46,3.44 -14.41,3.44 -5.76,0 -10.5,-0.99 -14.16,-2.99 -3.68,-2 -6.3,-4.87 -7.87,-8.65 -1.57,-3.78 -2.36,-8.94 -2.36,-15.49l0 -35.67 8.2 0 0 35.66c0,5.36 0.5,9.33 1.5,11.86 0.99,2.54 2.69,4.51 5.12,5.88 2.41,1.38 5.38,2.07 8.87,2.07 5.98,0 10.25,-1.37 12.8,-4.08 2.54,-2.73 3.81,-7.96 3.81,-15.73l0 -35.66z"/>
  <polygon id="7" class="fil2" points="1242.22,868.19 1242.22,813.66 1221.86,813.66 1221.86,806.41 1270.78,806.41 1270.78,813.66 1250.41,813.66 1250.41,868.19 "/>
  <polygon id="8" class="fil2" points="1294.91,868.19 1294.91,813.66 1274.56,813.66 1274.56,806.41 1323.47,806.41 1323.47,813.66 1303.11,813.66 1303.11,868.19 "/>
  <polygon id="9" class="fil2" points="1332.08,868.19 1332.08,806.41 1376.69,806.41 1376.69,813.66 1340.28,813.66 1340.28,832.64 1374.35,832.64 1374.35,839.89 1340.28,839.89 1340.28,860.94 1378.15,860.94 1378.15,868.19 "/>
  <path id="10" class="fil2" d="M1389.63 868.19l0 -61.77 27.38 0c5.51,0 9.69,0.56 12.55,1.67 2.86,1.11 5.15,3.06 6.86,5.87 1.71,2.8 2.56,5.91 2.56,9.3 0,4.39 -1.42,8.08 -4.26,11.09 -2.83,3 -7.2,4.9 -13.13,5.72 2.17,1.04 3.81,2.07 4.93,3.08 2.39,2.19 4.64,4.93 6.76,8.22l10.69 16.82 -10.21 0 -8.17 -12.85c-2.37,-3.72 -4.34,-6.56 -5.88,-8.53 -1.55,-1.97 -2.93,-3.33 -4.15,-4.13 -1.21,-0.78 -2.46,-1.32 -3.72,-1.64 -0.92,-0.19 -2.43,-0.29 -4.54,-0.29l-9.46 0 0 27.43 -8.2 0zm8.2 -34.51l17.54 0c3.74,0 6.64,-0.39 8.74,-1.17 2.1,-0.76 3.7,-2 4.78,-3.71 1.09,-1.7 1.64,-3.54 1.64,-5.54 0,-2.92 -1.05,-5.33 -3.17,-7.22 -2.11,-1.88 -5.45,-2.82 -10,-2.82l-19.53 0 0 20.45z"/>
  <path id="11" class="fil2" d="M1475.72 868.19l0 -61.77 23.32 0c4.1,0 7.23,0.2 9.41,0.59 3.03,0.5 5.58,1.47 7.63,2.87 2.06,1.43 3.71,3.41 4.96,5.95 1.25,2.55 1.87,5.35 1.87,8.41 0,5.23 -1.67,9.68 -5.02,13.3 -3.33,3.64 -9.39,5.45 -18.13,5.45l-15.85 0 0 25.19 -8.2 0zm8.2 -32.44l15.96 0c5.29,0 9.03,-0.98 11.26,-2.95 2.21,-1.97 3.32,-4.73 3.32,-8.31 0,-2.57 -0.65,-4.79 -1.95,-6.63 -1.31,-1.84 -3.04,-3.06 -5.17,-3.65 -1.38,-0.36 -3.93,-0.55 -7.62,-0.55l-15.8 0 0 22.09z"/>
  <path id="12" class="fil2" d="M1530.77 838.12c0,-10.24 2.76,-18.26 8.27,-24.06 5.51,-5.8 12.61,-8.69 21.32,-8.69 5.71,0 10.84,1.37 15.43,4.09 4.57,2.72 8.07,6.51 10.47,11.39 2.4,4.86 3.61,10.38 3.61,16.55 0,6.25 -1.26,11.86 -3.8,16.79 -2.53,4.95 -6.11,8.69 -10.74,11.22 -4.65,2.55 -9.65,3.81 -15.01,3.81 -5.82,0 -11.02,-1.41 -15.6,-4.21 -4.57,-2.8 -8.05,-6.63 -10.41,-11.49 -2.36,-4.85 -3.54,-9.98 -3.54,-15.4zm8.45 0.15c0,7.43 2,13.28 6,17.56 4,4.27 9.02,6.41 15.06,6.41 6.15,0 11.2,-2.16 15.19,-6.47 3.97,-4.31 5.95,-10.44 5.95,-18.38 0,-5.02 -0.85,-9.4 -2.55,-13.14 -1.7,-3.74 -4.18,-6.64 -7.45,-8.7 -3.28,-2.06 -6.94,-3.09 -11.01,-3.09 -5.78,0 -10.76,1.98 -14.93,5.95 -4.17,3.97 -6.26,10.58 -6.26,19.86z"/>
  <path id="13" class="fil2" d="M1611.03 868.19l-16.26 -61.77 8.48 0 9.26 40.5c1,4.24 1.9,8.46 2.66,12.63 1.63,-6.59 2.57,-10.38 2.85,-11.39l11.67 -41.74 9.85 0 8.86 31.28c2.17,7.76 3.78,15.06 4.81,21.85 0.82,-3.9 1.87,-8.37 3.15,-13.41l9.65 -39.72 8.21 0 -16.91 61.77 -7.95 0 -12.95 -47.06c-1.09,-3.94 -1.76,-6.35 -2,-7.24 -0.7,2.82 -1.34,5.23 -1.88,7.23l-12.96 47.07 -8.54 0z"/>
  <polygon id="14" class="fil2" points="1681.97,868.19 1681.97,806.41 1726.57,806.41 1726.57,813.66 1690.17,813.66 1690.17,832.64 1724.24,832.64 1724.24,839.89 1690.17,839.89 1690.17,860.94 1728.04,860.94 1728.04,868.19 "/>
  <path id="15" class="fil2" d="M1739.52 868.19l0 -61.77 27.38 0c5.51,0 9.69,0.56 12.55,1.67 2.86,1.11 5.15,3.06 6.86,5.87 1.71,2.8 2.56,5.91 2.56,9.3 0,4.39 -1.42,8.08 -4.26,11.09 -2.83,3 -7.2,4.9 -13.13,5.72 2.17,1.04 3.81,2.07 4.93,3.08 2.39,2.19 4.64,4.93 6.76,8.22l10.69 16.82 -10.21 0 -8.17 -12.85c-2.37,-3.72 -4.34,-6.56 -5.88,-8.53 -1.55,-1.97 -2.93,-3.33 -4.15,-4.13 -1.21,-0.78 -2.46,-1.32 -3.72,-1.64 -0.92,-0.19 -2.43,-0.29 -4.54,-0.29l-9.46 0 0 27.43 -8.2 0zm8.2 -34.51l17.54 0c3.74,0 6.64,-0.39 8.74,-1.17 2.1,-0.76 3.7,-2 4.78,-3.71 1.09,-1.7 1.64,-3.54 1.64,-5.54 0,-2.92 -1.05,-5.33 -3.17,-7.22 -2.11,-1.88 -5.45,-2.82 -10,-2.82l-19.53 0 0 20.45z"/>
  <path id="16" class="fil2" d="M1825.27 868.19l0 -61.77 23.18 0c4.72,0 8.5,0.62 11.36,1.87 2.85,1.25 5.07,3.18 6.69,5.78 1.63,2.59 2.43,5.31 2.43,8.15 0,2.63 -0.72,5.12 -2.15,7.45 -1.42,2.33 -3.58,4.21 -6.47,5.65 3.74,1.09 6.61,2.96 8.61,5.61 2.01,2.63 3.02,5.75 3.02,9.35 0,2.91 -0.62,5.59 -1.84,8.08 -1.22,2.49 -2.73,4.4 -4.53,5.75 -1.8,1.33 -4.06,2.36 -6.76,3.05 -2.72,0.69 -6.04,1.04 -9.98,1.04l-23.57 0zm8.19 -35.8l13.36 0c3.63,0 6.23,-0.24 7.8,-0.72 2.08,-0.62 3.65,-1.65 4.7,-3.09 1.05,-1.44 1.58,-3.23 1.58,-5.41 0,-2.06 -0.49,-3.87 -1.48,-5.42 -0.98,-1.57 -2.39,-2.65 -4.22,-3.22 -1.82,-0.57 -4.96,-0.86 -9.39,-0.86l-12.35 0 0 18.72zm0 28.56l15.39 0c2.65,0 4.5,-0.1 5.58,-0.3 1.87,-0.33 3.45,-0.89 4.72,-1.69 1.27,-0.79 2.3,-1.94 3.12,-3.45 0.82,-1.51 1.22,-3.25 1.22,-5.22 0,-2.31 -0.59,-4.31 -1.78,-6.02 -1.18,-1.71 -2.82,-2.91 -4.92,-3.59 -2.08,-0.69 -5.1,-1.04 -9.03,-1.04l-14.3 0 0 21.31z"/>
  <path id="17" class="fil2" d="M1923.62 806.41l8.2 0 0 35.67c0,6.21 -0.7,11.15 -2.1,14.8 -1.41,3.64 -3.94,6.61 -7.59,8.9 -3.67,2.29 -8.46,3.44 -14.41,3.44 -5.76,0 -10.5,-0.99 -14.16,-2.99 -3.68,-2 -6.3,-4.87 -7.87,-8.65 -1.57,-3.78 -2.36,-8.94 -2.36,-15.49l0 -35.67 8.2 0 0 35.66c0,5.36 0.5,9.33 1.5,11.86 0.99,2.54 2.69,4.51 5.12,5.88 2.41,1.38 5.38,2.07 8.87,2.07 5.98,0 10.25,-1.37 12.8,-4.08 2.54,-2.73 3.81,-7.96 3.81,-15.73l0 -35.66z"/>
  <polygon id="18" class="fil2" points="1961.16,868.19 1961.16,813.66 1940.8,813.66 1940.8,806.41 1989.72,806.41 1989.72,813.66 1969.36,813.66 1969.36,868.19 "/>
  <polygon id="19" class="fil2" points="2013.86,868.19 2013.86,813.66 1993.5,813.66 1993.5,806.41 2042.42,806.41 2042.42,813.66 2022.06,813.66 2022.06,868.19 "/>
  <path id="20" class="fil2" d="M2046.8 838.12c0,-10.24 2.76,-18.26 8.27,-24.06 5.51,-5.8 12.61,-8.69 21.32,-8.69 5.71,0 10.84,1.37 15.43,4.09 4.57,2.72 8.07,6.51 10.47,11.39 2.4,4.86 3.61,10.38 3.61,16.55 0,6.25 -1.26,11.86 -3.8,16.79 -2.53,4.95 -6.11,8.69 -10.74,11.22 -4.65,2.55 -9.65,3.81 -15.01,3.81 -5.82,0 -11.02,-1.41 -15.6,-4.21 -4.57,-2.8 -8.05,-6.63 -10.41,-11.49 -2.36,-4.85 -3.54,-9.98 -3.54,-15.4zm8.45 0.15c0,7.43 2,13.28 6,17.56 4,4.27 9.02,6.41 15.06,6.41 6.15,0 11.2,-2.16 15.19,-6.47 3.97,-4.31 5.95,-10.44 5.95,-18.38 0,-5.02 -0.85,-9.4 -2.55,-13.14 -1.7,-3.74 -4.18,-6.64 -7.45,-8.7 -3.28,-2.06 -6.94,-3.09 -11.01,-3.09 -5.78,0 -10.76,1.98 -14.93,5.95 -4.17,3.97 -6.26,10.58 -6.26,19.86z"/>
  <polygon id="21" class="fil2" points="2116.32,868.19 2116.32,806.41 2124.72,806.41 2157.13,854.9 2157.13,806.41 2164.98,806.41 2164.98,868.19 2156.58,868.19 2124.17,819.7 2124.17,868.19 "/>
  <line class="fil1 str1" x1="1009.79" y1="1046.92" x2="1244.16" y2= "1046.92" />
  <line class="fil1 str1" x1="1694.69" y1="1046.92" x2="1929.06" y2= "1046.92" />
  <line class="fil1 str1" x1="1223.33" y1="998.28" x2="1711.61" y2= "998.28" />
  <line class="fil1 str1" x1="1467.47" y1="998.28" x2="1467.47" y2= "914.94" />
  <line class="fil1 str1" x1="1929.06" y1="1046.92" x2="3211.57" y2= "1046.92" />
  <line class="fil1 str5" x1="3555.92" y1="1635.42" x2="1009.79" y2= "1635.42" />
  <line class="fil1 str5" x1="1009.79" y1="1046.92" x2="1009.79" y2= "1635.42" />
  <polyline class="fil1 str1" points="2163.4,603.12 2369.13,603.12 2369.13,1046.92 "/>
  <line class="fil1 str6" x1="2318.34" y1="2355.47" x2="2419.91" y2= "2253.91" />
  <line class="fil1 str6" x1="2419.91" y1="2253.91" x2="2318.34" y2= "2152.35" />
  <line class="fil1 str6" x1="2318.34" y1="2152.35" x2="2419.91" y2= "2050.78" />
  <line class="fil1 str6" x1="2419.91" y1="2050.78" x2="2318.34" y2= "1949.22" />
  <line class="fil1 str6" x1="2318.34" y1="1949.22" x2="2369.13" y2= "1898.44" />
  <line class="fil1 str6" x1="2369.13" y1="1898.44" x2="2369.13" y2= "1635.42" />
  <line class="fil1 str6" x1="2318.34" y1="2355.47" x2="2369.13" y2= "2406.26" />
  <line class="fil1 str6" x1="2369.13" y1="2406.25" x2="2369.13" y2= "2507.81" />
  <path class="fil2" d="M2494.67 2345.29l-7.59 0 0 -48.34c-1.83,1.76 -4.22,3.5 -7.19,5.24 -2.96,1.74 -5.63,3.05 -7.99,3.91l0 -7.33c4.24,-1.98 7.95,-4.4 11.13,-7.25 3.18,-2.83 5.44,-5.58 6.76,-8.25l4.89 0 0 62.03z"/>
  <polygon id="1" class="fil2" points="2516.28,2345.29 2516.28,2283.52 2523.87,2283.52 2523.87,2318.7 2541.82,2300.52 2551.63,2300.52 2534.54,2317.15 2553.35,2345.29 2544,2345.29 2529.14,2322.41 2523.87,2327.54 2523.87,2345.29 "/>
  <path id="2" class="fil2" d="M2584.48 2345.29l0 -61.77 27.38 0c5.51,0 9.69,0.56 12.55,1.67 2.86,1.11 5.15,3.06 6.86,5.87 1.71,2.8 2.56,5.91 2.56,9.3 0,4.39 -1.42,8.08 -4.26,11.09 -2.83,3 -7.2,4.9 -13.13,5.72 2.17,1.04 3.81,2.07 4.93,3.08 2.39,2.19 4.64,4.93 6.76,8.22l10.69 16.82 -10.21 0 -8.17 -12.85c-2.37,-3.72 -4.34,-6.56 -5.88,-8.53 -1.55,-1.97 -2.93,-3.33 -4.15,-4.13 -1.21,-0.78 -2.46,-1.32 -3.72,-1.64 -0.92,-0.19 -2.43,-0.29 -4.54,-0.29l-9.46 0 0 27.43 -8.2 0zm8.2 -34.51l17.54 0c3.74,0 6.64,-0.39 8.74,-1.17 2.1,-0.76 3.7,-2 4.78,-3.71 1.09,-1.7 1.64,-3.54 1.64,-5.54 0,-2.92 -1.05,-5.33 -3.17,-7.22 -2.11,-1.88 -5.45,-2.82 -10,-2.82l-19.53 0 0 20.45z"/>
  <path id="3" class="fil2" d="M2676.2 2330.8l7.85 1.04c-1.22,4.56 -3.51,8.11 -6.85,10.63 -3.33,2.52 -7.59,3.78 -12.78,3.78 -6.53,0 -11.7,-2.01 -15.53,-6.04 -3.82,-4.01 -5.74,-9.66 -5.74,-16.92 0,-7.51 1.93,-13.35 5.8,-17.49 3.87,-4.15 8.89,-6.22 15.05,-6.22 5.97,0 10.84,2.03 14.63,6.1 3.78,4.07 5.68,9.79 5.68,17.17 0,0.45 -0.01,1.12 -0.04,2.02l-33.34 0c0.29,4.9 1.67,8.67 4.17,11.27 2.49,2.6 5.61,3.91 9.33,3.91 2.78,0 5.15,-0.73 7.11,-2.2 1.97,-1.47 3.52,-3.81 4.67,-7.03zm-24.84 -12.17l24.93 0c-0.33,-3.77 -1.29,-6.59 -2.86,-8.47 -2.4,-2.92 -5.54,-4.39 -9.38,-4.39 -3.48,0 -6.4,1.17 -8.77,3.49 -2.36,2.33 -3.67,5.45 -3.93,9.36z"/>
  <path id="4" class="fil2" d="M2690.62 2331.92l7.51 -1.2c0.42,3 1.59,5.3 3.52,6.91 1.93,1.6 4.63,2.4 8.08,2.4 3.5,0 6.08,-0.7 7.78,-2.13 1.68,-1.41 2.53,-3.08 2.53,-4.99 0,-1.71 -0.76,-3.06 -2.27,-4.04 -1.07,-0.67 -3.65,-1.52 -7.77,-2.57 -5.55,-1.39 -9.39,-2.6 -11.54,-3.62 -2.14,-1.04 -3.77,-2.44 -4.87,-4.26 -1.11,-1.8 -1.67,-3.8 -1.67,-5.98 0,-2 0.46,-3.84 1.37,-5.54 0.92,-1.7 2.16,-3.11 3.72,-4.23 1.18,-0.86 2.79,-1.59 4.81,-2.2 2.04,-0.6 4.21,-0.91 6.54,-0.91 3.51,0 6.59,0.5 9.23,1.52 2.66,1.01 4.61,2.39 5.88,4.11 1.25,1.74 2.13,4.06 2.6,6.96l-7.42 1.04c-0.33,-2.33 -1.31,-4.15 -2.92,-5.46 -1.61,-1.31 -3.88,-1.96 -6.83,-1.96 -3.46,0 -5.95,0.57 -7.43,1.72 -1.48,1.15 -2.23,2.5 -2.23,4.04 0,0.98 0.3,1.87 0.92,2.66 0.62,0.81 1.58,1.48 2.91,2.01 0.76,0.29 2.98,0.94 6.69,1.94 5.35,1.43 9.09,2.6 11.22,3.51 2.13,0.91 3.8,2.24 5,3.97 1.22,1.74 1.83,3.9 1.83,6.49 0,2.52 -0.73,4.89 -2.22,7.11 -1.48,2.23 -3.61,3.96 -6.38,5.18 -2.79,1.22 -5.94,1.83 -9.45,1.83 -5.81,0 -10.25,-1.21 -13.3,-3.61 -3.05,-2.41 -4.99,-5.98 -5.84,-10.71z"/>
  <path id="5" class="fil2" d="M2736.78 2292.15l0 -8.63 7.59 0 0 8.63 -7.59 0zm0 53.14l0 -44.78 7.59 0 0 44.78 -7.59 0z"/>
  <path id="6" class="fil2" d="M2752.93 2331.92l7.51 -1.2c0.42,3 1.59,5.3 3.52,6.91 1.93,1.6 4.63,2.4 8.08,2.4 3.5,0 6.08,-0.7 7.78,-2.13 1.68,-1.41 2.53,-3.08 2.53,-4.99 0,-1.71 -0.76,-3.06 -2.27,-4.04 -1.07,-0.67 -3.65,-1.52 -7.77,-2.57 -5.55,-1.39 -9.39,-2.6 -11.54,-3.62 -2.14,-1.04 -3.77,-2.44 -4.87,-4.26 -1.11,-1.8 -1.67,-3.8 -1.67,-5.98 0,-2 0.46,-3.84 1.37,-5.54 0.92,-1.7 2.16,-3.11 3.72,-4.23 1.18,-0.86 2.79,-1.59 4.81,-2.2 2.04,-0.6 4.21,-0.91 6.54,-0.91 3.51,0 6.59,0.5 9.23,1.52 2.66,1.01 4.61,2.39 5.88,4.11 1.25,1.74 2.13,4.06 2.6,6.96l-7.42 1.04c-0.33,-2.33 -1.31,-4.15 -2.92,-5.46 -1.61,-1.31 -3.88,-1.96 -6.83,-1.96 -3.46,0 -5.95,0.57 -7.43,1.72 -1.48,1.15 -2.23,2.5 -2.23,4.04 0,0.98 0.3,1.87 0.92,2.66 0.62,0.81 1.58,1.48 2.91,2.01 0.76,0.29 2.98,0.94 6.69,1.94 5.35,1.43 9.09,2.6 11.22,3.51 2.13,0.91 3.8,2.24 5,3.97 1.22,1.74 1.83,3.9 1.83,6.49 0,2.52 -0.73,4.89 -2.22,7.11 -1.48,2.23 -3.61,3.96 -6.38,5.18 -2.79,1.22 -5.94,1.83 -9.45,1.83 -5.81,0 -10.25,-1.21 -13.3,-3.61 -3.05,-2.41 -4.99,-5.98 -5.84,-10.71z"/>
  <path id="7" class="fil2" d="M2815.56 2338.52l1.04 6.7c-2.13,0.44 -4.04,0.67 -5.71,0.67 -2.75,0 -4.87,-0.43 -6.4,-1.31 -1.51,-0.88 -2.57,-2.01 -3.19,-3.44 -0.62,-1.42 -0.92,-4.41 -0.92,-8.97l0 -25.8 -5.61 0 0 -5.87 5.61 0 0 -11.07 7.59 -4.56 0 15.63 7.59 0 0 5.87 -7.59 0 0 26.23c0,2.17 0.13,3.57 0.41,4.19 0.26,0.62 0.69,1.11 1.29,1.48 0.61,0.36 1.47,0.55 2.59,0.55 0.83,0 1.94,-0.1 3.31,-0.3z"/>
  <path id="8" class="fil2" d="M2820.2 2322.91c0,-8.27 2.3,-14.39 6.92,-18.38 3.84,-3.31 8.54,-4.96 14.07,-4.96 6.14,0 11.17,2.01 15.08,6.04 3.9,4.01 5.85,9.57 5.85,16.67 0,5.75 -0.86,10.27 -2.59,13.56 -1.72,3.29 -4.24,5.85 -7.55,7.68 -3.29,1.83 -6.9,2.73 -10.8,2.73 -6.27,0 -11.33,-2 -15.2,-6.01 -3.87,-4.01 -5.8,-9.79 -5.8,-17.32zm7.76 0.01c0,5.72 1.25,10.01 3.76,12.84 2.52,2.85 5.66,4.27 9.47,4.27 3.77,0 6.9,-1.42 9.42,-4.28 2.5,-2.86 3.76,-7.22 3.76,-13.07 0,-5.52 -1.27,-9.7 -3.78,-12.54 -2.52,-2.85 -5.65,-4.27 -9.39,-4.27 -3.81,0 -6.96,1.41 -9.47,4.24 -2.5,2.83 -3.76,7.1 -3.76,12.81z"/>
  <path id="9" class="fil2" d="M2870.94 2345.29l0 -44.78 6.81 0 0 6.86c1.74,-3.18 3.35,-5.28 4.83,-6.28 1.48,-1.02 3.1,-1.52 4.87,-1.52 2.56,0 5.16,0.81 7.81,2.4l-2.7 7c-1.84,-1.04 -3.68,-1.56 -5.52,-1.56 -1.65,0 -3.13,0.5 -4.44,1.5 -1.31,0.99 -2.24,2.37 -2.8,4.14 -0.85,2.69 -1.26,5.63 -1.26,8.84l0 23.39 -7.59 0z"/>
  <polygon class="fil2" points="1731.22,1168.23 1731.22,1106.46 1739.62,1106.46 1772.04,1154.94 1772.04,1106.46 1779.89,1106.46 1779.89,1168.23 1771.49,1168.23 1739.08,1119.74 1739.08,1168.23 "/>
  <path id="1" class="fil2" d="M1837.62 1146.56l8.19 2.07c-1.71,6.72 -4.79,11.82 -9.23,15.34 -4.44,3.52 -9.88,5.29 -16.31,5.29 -6.65,0 -12.05,-1.35 -16.22,-4.07 -4.17,-2.7 -7.33,-6.63 -9.5,-11.76 -2.17,-5.15 -3.26,-10.66 -3.26,-16.55 0,-6.43 1.22,-12.04 3.68,-16.82 2.46,-4.79 5.95,-8.43 10.48,-10.91 4.53,-2.49 9.52,-3.72 14.96,-3.72 6.18,0 11.37,1.57 15.57,4.72 4.21,3.15 7.15,7.56 8.8,13.26l-8.02 1.9c-1.42,-4.48 -3.51,-7.76 -6.22,-9.81 -2.72,-2.06 -6.14,-3.07 -10.27,-3.07 -4.73,0 -8.7,1.13 -11.88,3.41 -3.18,2.27 -5.42,5.33 -6.7,9.16 -1.29,3.84 -1.94,7.79 -1.94,11.86 0,5.25 0.76,9.83 2.29,13.75 1.52,3.93 3.9,6.84 7.12,8.78 3.22,1.94 6.7,2.91 10.45,2.91 4.57,0 8.43,-1.32 11.59,-3.95 3.16,-2.65 5.31,-6.56 6.43,-11.76z"/>
 </g>
</svg>
